<?xml version="1.0" encoding="utf-8"?>
<!-- Generator: Adobe Illustrator 16.0.4, SVG Export Plug-In . SVG Version: 6.00 Build 0)  -->
<!DOCTYPE svg PUBLIC "-//W3C//DTD SVG 1.1//EN" "http://www.w3.org/Graphics/SVG/1.1/DTD/svg11.dtd">
<svg version="1.1" id="Layer_1" xmlns="http://www.w3.org/2000/svg" xmlns:xlink="http://www.w3.org/1999/xlink" x="0px" y="0px"
	 width="700px" height="700px" viewBox="0 0 700 700" enable-background="new 0 0 700 700" xml:space="preserve">
<g>
	<path d="M184.2,468.9c0,8.1-1.3,15.1-3.8,21c-2.6,5.9-6.1,10.6-10.8,14.1l14.6,11.4l-9.6,8.7l-18.2-14.4c-2.4,0.5-4.9,0.8-7.7,0.8
		c-6.9,0-13-1.7-18.4-5.1c-5.4-3.4-9.6-8.2-12.5-14.4c-2.9-6.2-4.4-13.5-4.5-21.6v-4.8c0-8.3,1.5-15.7,4.4-22
		c2.9-6.4,7.1-11.2,12.5-14.6c5.4-3.4,11.5-5.1,18.4-5.1c7,0,13.2,1.7,18.6,5c5.4,3.3,9.5,8.1,12.5,14.4s4.4,13.6,4.5,21.9V468.9z
		 M169.3,464.5c0-9.6-1.8-16.9-5.4-21.9c-3.6-5-8.7-7.4-15.2-7.4c-6.4,0-11.4,2.5-15,7.5c-3.6,5-5.5,12.1-5.5,21.2v5
		c0,9.2,1.8,16.4,5.4,21.6c3.6,5.2,8.7,7.8,15.2,7.8c6.6,0,11.7-2.5,15.2-7.5c3.5-5,5.3-12.3,5.3-21.9V464.5z"/>
	<path d="M230.6,476.6h-16.5v32.8h-14.8v-85.3h30c9.8,0,17.4,2.2,22.8,6.6c5.4,4.4,8,10.8,8,19.2c0,5.7-1.4,10.5-4.1,14.3
		s-6.6,6.8-11.5,8.9l19.2,35.5v0.8h-15.9L230.6,476.6z M214.1,464.6h15.2c5,0,8.9-1.3,11.7-3.8s4.2-6,4.2-10.3
		c0-4.6-1.3-8.1-3.9-10.6c-2.6-2.5-6.5-3.8-11.6-3.9h-15.6V464.6z"/>
	<path d="M308.9,460.2c-1.5-0.2-3.1-0.4-4.9-0.4c-6.5,0-10.9,2.8-13.3,8.3v41.2h-9.9v-58.1h9.7l0.2,6.7c3.3-5.2,7.9-7.8,13.9-7.8
		c1.9,0,3.4,0.3,4.4,0.8V460.2z"/>
	<path d="M361.2,509.4c-0.5-1.1-1-3-1.3-5.8c-4.4,4.6-9.7,6.9-15.8,6.9c-5.5,0-10-1.5-13.5-4.6c-3.5-3.1-5.3-7-5.3-11.8
		c0-5.8,2.2-10.3,6.6-13.5c4.4-3.2,10.6-4.8,18.5-4.8h9.2v-4.4c0-3.3-1-6-3-7.9c-2-2-4.9-2.9-8.8-2.9c-3.4,0-6.2,0.9-8.5,2.6
		c-2.3,1.7-3.4,3.8-3.4,6.2h-9.5c0-2.8,1-5.4,2.9-8c2-2.6,4.6-4.6,8-6.1c3.4-1.5,7.1-2.3,11.1-2.3c6.4,0,11.4,1.6,15,4.8
		c3.6,3.2,5.5,7.6,5.6,13.2v25.5c0,5.1,0.6,9.1,1.9,12.2v0.8H361.2z M345.5,502.2c3,0,5.8-0.8,8.5-2.3s4.6-3.5,5.8-6v-11.4h-7.4
		c-11.6,0-17.4,3.4-17.4,10.2c0,3,1,5.3,3,7C339.8,501.3,342.4,502.2,345.5,502.2z"/>
	<path d="M440,482.3c0,8.5-1.9,15.3-5.8,20.4c-3.9,5.1-9.1,7.7-15.7,7.7c-7,0-12.4-2.5-16.3-7.4l-0.5,6.4H393v-78.8h9.5V460
		c3.8-4.8,9.1-7.1,15.8-7.1c6.7,0,12,2.5,15.9,7.6c3.8,5.1,5.8,12.1,5.8,20.9V482.3z M430.5,481.2c0-6.5-1.2-11.5-3.7-15
		c-2.5-3.5-6.1-5.3-10.8-5.3c-6.3,0-10.8,2.9-13.5,8.7v24c2.9,5.8,7.4,8.7,13.6,8.7c4.5,0,8.1-1.8,10.6-5.3
		C429.2,493.6,430.5,488.3,430.5,481.2z"/>
	<path d="M507.8,482.3c0,8.5-1.9,15.3-5.8,20.4c-3.9,5.1-9.1,7.7-15.7,7.7c-7,0-12.4-2.5-16.3-7.4l-0.5,6.4h-8.7v-78.8h9.5V460
		c3.8-4.8,9.1-7.1,15.8-7.1c6.7,0,12,2.5,15.9,7.6c3.8,5.1,5.8,12.1,5.8,20.9V482.3z M498.3,481.2c0-6.5-1.2-11.5-3.7-15
		c-2.5-3.5-6.1-5.3-10.8-5.3c-6.3,0-10.8,2.9-13.5,8.7v24c2.9,5.8,7.4,8.7,13.6,8.7c4.5,0,8.1-1.8,10.6-5.3
		C497.1,493.6,498.3,488.3,498.3,481.2z"/>
	<path d="M528.8,439.2c0-1.5,0.5-2.8,1.4-3.9c0.9-1.1,2.3-1.6,4.2-1.6s3.2,0.5,4.2,1.6c1,1.1,1.4,2.4,1.4,3.9c0,1.5-0.5,2.8-1.4,3.8
		c-1,1-2.4,1.5-4.2,1.5s-3.2-0.5-4.2-1.5C529.2,442,528.8,440.7,528.8,439.2z M539,509.4h-9.5v-55.5h9.5V509.4z"/>
	<path d="M576,440.5v13.4h10.4v7.3H576v34.4c0,2.2,0.5,3.9,1.4,5c0.9,1.1,2.5,1.7,4.7,1.7c1.1,0,2.6-0.2,4.5-0.6v7.6
		c-2.5,0.7-4.9,1-7.3,1c-4.2,0-7.4-1.3-9.6-3.8c-2.2-2.6-3.2-6.2-3.2-10.9v-34.4h-10.1v-7.3h10.1v-13.4H576z"/>
</g>
<g>
	<g>
		<path d="M111.7,402.2h77.5v-77.5h-77.5V402.2z M121.7,334.7h57.5v57.5h-57.5V334.7z"/>
	</g>
	<g>
		<rect x="133.6" y="346.7" width="33.8" height="33.8"/>
	</g>
	<g>
		<rect x="189.2" y="246.9" width="10.7" height="11"/>
	</g>
	<g>
		<path d="M583.6,392.9c-3.8-3-31.8-28.2-72.8-57.5c0,0,42.2,23.2,55.5,2.2s-63.8-83.2-72.8-89s-40.5-30.5-40.5-30.5
			c-43-27.5-87.8-66.2-190.5-66.2c-14,0-26.5,5-26.5,12.5c0,8,11.5,12,26.3,12c61.1,0,99,2.8,168.4,50.2
			c-74.7-37.3-163.2-38.5-170-38.5s-26.5,1.4-26.5,7.8c0,7.9,19.2,10.8,28.2,10.8c92.5-0.2,154.2,35.5,161.4,40.5s7.9,10.6-4.6,8.9
			s-44.9-19.1-60.5-25.3c-14.1-5.6-25.8-7.7-33.4-7.8l0.1,12.9v8.9v2.1h10.4v10.9h45.6v11h10.5v0v11h-10.4v-11h-12v11h-21.9v-11h-12
			v11v11h-11.7v-11h-22.3v-11h-9.8v-11h22.1v11h21.7v-11h-21.5v-11h-22.3v-10.9v-11h-35.5v11v10.9H246v-10.9h-11.6v10.9h-11.8v0
			h-10.7v22h-11.8v11h-21.9v-11h11v-11h-11v0h-10.9v22v11v10.8h-11.2v-10.9h-22.6v10.9v0.1v10.9h33.8v-10.9h10.9v10.9h21.7v10.9h12
			v23.1h-12v22.8h12h0.3h10.3h12.3v-11.8h-12.3v-11.1h12.3v-10.9h10.6v-12.2h22.5v0h0.2v-21.9h-11v11h-22.7v11h0v12.2h-11.9v-12.2
			v-10.9v-0.1H212v-10.8h33.9v-11h10.8v-11h23.9v10.9v0v10.8v0.1v10.9h55.4v11.2h12v-33h10.7v10.8v0.1v10.9h11.2v11.2h12v-22h10.4
			v-0.2h12.5v12.8h-12.2c0,0-0.1,13.8,0,14c26.3,12.5,99.9,48.2,106.2,51.2s8.5,2.5,10.5-0.2s0.5-6.5-3.5-9.2s-22-18-59.2-40.8
			c46,14.5,121.8,66,127.8,71s9.8,3,10.8,1.2S587.4,395.9,583.6,392.9z M200.1,279.9h11.8v2v8.9v0v10.8h-11.8v-10.8v0V279.9z
			 M178.2,290.9h11v10.8h-11V290.9z M256.6,268.9v11h-22.3v11h-11.8v-8.9v-2v-22h11.8v11h22.5v-11v-10.9h11.4v-11h12.2v11h11.6v10.9
			h-11.6v11.1H256.6z M292.1,279.9h9.8v10.9h-9.8V279.9z M301.9,290.9h12.3v10.8h-12.3V290.9z"/>
	</g>
	<g>
		<rect x="531.9" y="311.4" fill="#FFFFFF" width="13.8" height="14"/>
	</g>
</g>
</svg>
