<?xml version="1.0" encoding="utf-8"?>
<!-- Generator: Adobe Illustrator 25.4.1, SVG Export Plug-In . SVG Version: 6.00 Build 0)  -->
<svg version="1.1" id="Layer_1" xmlns="http://www.w3.org/2000/svg" xmlns:xlink="http://www.w3.org/1999/xlink" x="0px" y="0px"
	 viewBox="0 0 700 700" style="enable-background:new 0 0 700 700;" xml:space="preserve">
<style type="text/css">
	.st0{fill:#FFFFFF;}
</style>
<g>
	<path class="st0" d="M108.5,531c0,11.9-1.9,22.2-5.6,30.8c-3.8,8.7-8.9,15.5-15.8,20.7l21.4,16.7L94.4,612l-26.7-21.1
		c-3.5,0.7-7.2,1.2-11.3,1.2c-10.1,0-19.1-2.5-27-7.5c-7.9-5-14.1-12-18.3-21.1c-4.3-9.1-6.5-19.8-6.6-31.7v-7
		c0-12.2,2.2-23,6.5-32.3c4.3-9.4,10.4-16.4,18.3-21.4c7.9-5,16.9-7.5,27-7.5c10.3,0,19.4,2.5,27.3,7.3c7.9,4.8,13.9,11.9,18.3,21.1
		c4.4,9.2,6.5,20,6.6,32.1L108.5,531L108.5,531z M86.6,524.6c0-14.1-2.6-24.8-7.9-32.1c-5.3-7.3-12.8-10.9-22.3-10.9
		c-9.4,0-16.7,3.7-22,11s-8.1,17.8-8.1,31.1v7.3c0,13.5,2.6,24.1,7.9,31.7c5.3,7.6,12.8,11.4,22.3,11.4c9.7,0,17.2-3.7,22.3-11
		c5.1-7.3,7.8-18,7.8-32.1V524.6z"/>
	<path class="st0" d="M176.5,542.3h-24.2v48.1h-21.7V465.3h44c14.4,0,25.5,3.2,33.4,9.7c7.9,6.5,11.7,15.8,11.7,28.2
		c0,8.4-2.1,15.4-6,21c-4,5.6-9.7,10-16.9,13.1l28.2,52.1v1.2h-23.3L176.5,542.3z M152.3,524.7h22.3c7.3,0,13.1-1.9,17.2-5.6
		c4.1-3.7,6.2-8.8,6.2-15.1c0-6.7-1.9-11.9-5.7-15.5c-3.8-3.7-9.5-5.6-17-5.7h-22.9L152.3,524.7L152.3,524.7z"/>
	<path class="st0" d="M291.4,518.3c-2.2-0.3-4.5-0.6-7.2-0.6c-9.5,0-16,4.1-19.5,12.2v60.4h-14.5v-85.2h14.2l0.3,9.8
		c4.8-7.6,11.6-11.4,20.4-11.4c2.8,0,5,0.4,6.5,1.2v13.6H291.4z"/>
	<path class="st0" d="M368.1,590.4c-0.7-1.6-1.5-4.4-1.9-8.5C359.7,588.7,352,592,343,592c-8.1,0-14.7-2.2-19.8-6.7
		c-5.1-4.5-7.8-10.3-7.8-17.3c0-8.5,3.2-15.1,9.7-19.8c6.5-4.7,15.5-7,27.1-7h13.5v-6.5c0-4.8-1.5-8.8-4.4-11.6
		c-2.9-2.9-7.2-4.3-12.9-4.3c-5,0-9.1,1.3-12.5,3.8c-3.4,2.5-5,5.6-5,9.1h-13.9c0-4.1,1.5-7.9,4.3-11.7c2.9-3.8,6.7-6.7,11.7-8.9
		c5-2.2,10.4-3.4,16.3-3.4c9.4,0,16.7,2.3,22,7c5.3,4.7,8.1,11.2,8.2,19.4v37.4c0,7.5,0.9,13.3,2.8,17.9v1.2h-14.2L368.1,590.4
		L368.1,590.4z M345.1,579.9c4.4,0,8.5-1.2,12.5-3.4c4-2.2,6.7-5.1,8.5-8.8V551h-10.9c-17,0-25.5,5-25.5,15c0,4.4,1.5,7.8,4.4,10.3
		C336.7,578.6,340.5,579.9,345.1,579.9z"/>
	<path class="st0" d="M483.7,550.7c0,12.5-2.8,22.4-8.5,29.9c-5.7,7.5-13.4,11.3-23,11.3c-10.3,0-18.2-3.7-23.9-10.9l-0.7,9.4h-12.8
		V474.8h13.9V518c5.6-7,13.3-10.4,23.2-10.4c9.8,0,17.6,3.7,23.3,11.1c5.6,7.5,8.5,17.8,8.5,30.7L483.7,550.7L483.7,550.7z
		 M469.8,549.1c0-9.5-1.8-16.9-5.4-22c-3.7-5.1-8.9-7.8-15.8-7.8c-9.2,0-15.8,4.3-19.8,12.8v35.2c4.3,8.5,10.9,12.8,20,12.8
		c6.6,0,11.9-2.6,15.6-7.8C467.9,567.3,469.8,559.5,469.8,549.1z"/>
	<path class="st0" d="M583.2,550.7c0,12.5-2.8,22.4-8.5,29.9c-5.7,7.5-13.3,11.3-23,11.3c-10.3,0-18.2-3.7-23.9-10.9l-0.7,9.4h-12.8
		V474.8h13.9V518c5.6-7,13.4-10.4,23.2-10.4c9.8,0,17.6,3.7,23.3,11.1c5.6,7.5,8.5,17.8,8.5,30.7L583.2,550.7L583.2,550.7z
		 M569.2,549.1c0-9.5-1.8-16.9-5.4-22c-3.7-5.1-8.9-7.8-15.8-7.8c-9.2,0-15.8,4.3-19.8,12.8v35.2c4.3,8.5,10.9,12.8,20,12.8
		c6.6,0,11.9-2.6,15.5-7.8C567.5,567.3,569.2,559.5,569.2,549.1z"/>
	<path class="st0" d="M614,487.5c0-2.2,0.7-4.1,2.1-5.7c1.3-1.6,3.4-2.3,6.2-2.3c2.8,0,4.7,0.7,6.2,2.3c1.5,1.6,2.1,3.5,2.1,5.7
		s-0.7,4.1-2.1,5.6c-1.5,1.5-3.5,2.2-6.2,2.2c-2.6,0-4.7-0.7-6.2-2.2C614.6,491.6,614,489.7,614,487.5z M628.9,590.4H615V509h13.9
		V590.4z"/>
	<path class="st0" d="M683.2,489.4V509h15.3v10.7h-15.3v50.5c0,3.2,0.7,5.7,2.1,7.3c1.3,1.6,3.7,2.5,6.9,2.5c1.6,0,3.8-0.3,6.6-0.9
		v11.1c-3.7,1-7.2,1.5-10.7,1.5c-6.2,0-10.9-1.9-14.1-5.6c-3.2-3.8-4.7-9.1-4.7-16v-50.5h-14.8V509h14.8v-19.7L683.2,489.4
		L683.2,489.4z"/>
</g>
<g>
	<g>
		<path class="st0" d="M2.1,433.2h113.7V319.5H2.1V433.2z M16.8,334.2h84.4v84.4H16.8V334.2z"/>
	</g>
	<g>
		<rect x="34.2" y="351.8" class="st0" width="49.6" height="49.6"/>
	</g>
	<g>
		<rect x="115.8" y="205.4" class="st0" width="15.7" height="16.1"/>
	</g>
	<g>
		<path class="st0" d="M694.4,419.5c-5.6-4.4-46.6-41.4-106.8-84.4c0,0,61.9,34,81.4,3.2c19.5-30.8-93.6-122.1-106.8-130.6
			c-13.2-8.5-59.4-44.7-59.4-44.7C439.7,122.8,374,66,223.3,66c-20.5,0-38.9,7.3-38.9,18.3c0,11.7,16.9,17.6,38.6,17.6
			c89.6,0,145.2,4.1,247,73.6c-109.6-54.7-239.4-56.5-249.4-56.5s-38.9,2.1-38.9,11.4c0,11.6,28.2,15.8,41.4,15.8
			c135.7-0.3,226.2,52.1,236.8,59.4c10.6,7.3,11.6,15.5-6.7,13.1c-18.3-2.5-65.9-28-88.8-37.1c-20.7-8.2-37.8-11.3-49-11.4l0.1,18.9
			v13.1v3.1h15.3v16h66.9v16.1h15.4l0,0v16.1h-15.3v-16.1h-17.6v16.1h-32.1v-16.1h-17.6v16.1v16.1h-17.2v-16.1h-32.7v-16.1h-14.4
			v-16.1h32.4v16.1h31.8v-16.1H299v-16.1h-32.7v-16v-16.1h-52.1v16.1v16h-15.1v-16h-17v16h-17.3l0,0h-15.7v32.3h-17.3v16.1H99.7
			v-16.1h16.1v-16.1H99.7l0,0h-16v32.3v16.1v15.8H67.2v-16H34.1v16v0.1v16h49.6v-16h16v16h31.8v16h17.6v33.9h-17.6v33.4h17.6h0.4
			h15.1h18v-17.3h-18v-16.3h18v-16h15.5v-17.9h33l0,0h0.3v-32.1h-16.1v16.1h-33.3v16.1l0,0v17.9h-17.5v-17.9v-16v-0.1h-15.4v-15.8
			H199v-16.1h15.8v-16.1h35.1v16l0,0v15.8v0.1v16h81.3v16.4h17.6v-48.4h15.7v15.8v0.1v16h16.4v16.4h17.6v-32.3h15.3v-0.3h18.3v18.8
			h-17.9c0,0-0.1,20.2,0,20.5c38.6,18.3,146.5,70.7,155.8,75.1c9.2,4.4,12.5,3.7,15.4-0.3c2.9-4,0.7-9.5-5.1-13.5
			c-5.9-4-32.3-26.4-86.8-59.9c67.5,21.3,178.7,96.8,187.5,104.2c8.8,7.3,14.4,4.4,15.8,1.8C698.2,429.4,699.9,423.9,694.4,419.5z
			 M131.8,253.8h17.3v2.9v13.1l0,0v15.8h-17.3v-15.8l0,0V253.8z M99.7,269.9h16.1v15.8H99.7V269.9z M214.7,237.6v16.1h-32.7v16.1
			h-17.3v-13.1v-2.9v-32.3h17.3v16.1h33v-16.1v-16h16.7v-16.1h17.9v16.1h17v16h-17v16.3h-34.9V237.6z M266.7,253.8h14.4v16h-14.4
			V253.8z M281.1,269.9h18v15.8h-18V269.9z"/>
	</g>
	<g>
		<rect x="618.5" y="300" class="st0" width="20.2" height="20.5"/>
	</g>
</g>
</svg>
